# xmcd CD database file
#
# Track frame offsets:
#	150
#	22746
#	42249
#	61390
#	80955
#	96115
#	118157
#	137344
#	152627
#	179134
#	204768
#	228767
#	249395
#	268123
#	289315
#	312376
#	334383
#
# Disc length: 4706 seconds
#
# Revision: 1
# Processed by: cddbd v1.5.2PL0 Copyright (c) Steve Scherf et al.
# Submitted via: CDex 1.70beta2
#
DISCID=f2126011
DTITLE=Randy Crawford - The Best Of
DYEAR=2011
DGENRE=Soul
TTITLE0=One Day I'll Fly Away
TTITLE1=You Might Need Somebody
TTITLE2=Street Life
TTITLE3=Rainy Night In Georgia
TTITLE4=You Bring The Sun Out
TTITLE5=Last Night At Danceland
TTITLE6=Rio De Janeiro Blue
TTITLE7=Secret Combination
TTITLE8=What A Difference A Day Makes
TTITLE9=Randy Crawford and Yellowjackets - Imagine (Live)
TTITLE10=Randy Crawford and Allen Hinds - Worn But Not Tattered
TTITLE11=He Reminds Me
TTITLE12=Tender Falls The Rain
TTITLE13=Randy Crawford and Zucchero - Diamante
TTITLE14=Give Me The Night
TTITLE15=Everything Must Change (Live)
TTITLE16=Almaz
EXTD=YEAR: 2011
EXTT0=
EXTT1=
EXTT2=
EXTT3=
EXTT4=
EXTT5=
EXTT6=
EXTT7=
EXTT8=
EXTT9=
EXTT10=
EXTT11=
EXTT12=
EXTT13=
EXTT14=
EXTT15=
EXTT16=
PLAYORDER=
